<svg xmlns="http://www.w3.org/2000/svg" width="683" height="632" viewBox="0 0 683 632"><defs><style>.a{opacity:0.39;}.b{fill:#4d4d4d;}</style></defs><g class="a" transform="translate(241 -4176)"><circle class="b" cx="4" cy="4" r="4" transform="translate(119 4176)"/><circle class="b" cx="4" cy="4" r="4" transform="translate(119 4592)"/><circle class="b" cx="4" cy="4" r="4" transform="translate(119 4384)"/><circle class="b" cx="4" cy="4" r="4" transform="translate(119 4800)"/><circle class="b" cx="4" cy="4" r="4" transform="translate(119 4280)"/><circle class="b" cx="4" cy="4" r="4" transform="translate(119 4696)"/><circle class="b" cx="4" cy="4" r="4" transform="translate(119 4488)"/><circle class="b" cx="4" cy="4" r="4" transform="translate(119 4228)"/><circle class="b" cx="4" cy="4" r="4" transform="translate(119 4644)"/><circle class="b" cx="4" cy="4" r="4" transform="translate(119 4436)"/><circle class="b" cx="4" cy="4" r="4" transform="translate(119 4332)"/><circle class="b" cx="4" cy="4" r="4" transform="translate(119 4748)"/><circle class="b" cx="4" cy="4" r="4" transform="translate(119 4540)"/><circle class="b" cx="4" cy="4" r="4" transform="translate(299 4176)"/><circle class="b" cx="4" cy="4" r="4" transform="translate(299 4592)"/><circle class="b" cx="4" cy="4" r="4" transform="translate(299 4384)"/><circle class="b" cx="4" cy="4" r="4" transform="translate(299 4800)"/><circle class="b" cx="4" cy="4" r="4" transform="translate(299 4280)"/><circle class="b" cx="4" cy="4" r="4" transform="translate(299 4696)"/><circle class="b" cx="4" cy="4" r="4" transform="translate(299 4488)"/><circle class="b" cx="4" cy="4" r="4" transform="translate(299 4228)"/><circle class="b" cx="4" cy="4" r="4" transform="translate(299 4644)"/><circle class="b" cx="4" cy="4" r="4" transform="translate(299 4436)"/><circle class="b" cx="4" cy="4" r="4" transform="translate(299 4332)"/><circle class="b" cx="4" cy="4" r="4" transform="translate(299 4748)"/><circle class="b" cx="4" cy="4" r="4" transform="translate(299 4540)"/><circle class="b" cx="4" cy="4" r="4" transform="translate(209 4176)"/><circle class="b" cx="4" cy="4" r="4" transform="translate(209 4592)"/><circle class="b" cx="4" cy="4" r="4" transform="translate(209 4384)"/><circle class="b" cx="4" cy="4" r="4" transform="translate(209 4800)"/><circle class="b" cx="4" cy="4" r="4" transform="translate(209 4280)"/><circle class="b" cx="4" cy="4" r="4" transform="translate(209 4696)"/><circle class="b" cx="4" cy="4" r="4" transform="translate(209 4488)"/><circle class="b" cx="4" cy="4" r="4" transform="translate(209 4228)"/><circle class="b" cx="4" cy="4" r="4" transform="translate(209 4644)"/><circle class="b" cx="4" cy="4" r="4" transform="translate(209 4436)"/><circle class="b" cx="4" cy="4" r="4" transform="translate(209 4332)"/><circle class="b" cx="4" cy="4" r="4" transform="translate(209 4748)"/><circle class="b" cx="4" cy="4" r="4" transform="translate(209 4540)"/><circle class="b" cx="4" cy="4" r="4" transform="translate(29 4176)"/><circle class="b" cx="4" cy="4" r="4" transform="translate(29 4592)"/><circle class="b" cx="4" cy="4" r="4" transform="translate(29 4384)"/><circle class="b" cx="4" cy="4" r="4" transform="translate(29 4800)"/><circle class="b" cx="4" cy="4" r="4" transform="translate(29 4280)"/><circle class="b" cx="4" cy="4" r="4" transform="translate(29 4696)"/><circle class="b" cx="4" cy="4" r="4" transform="translate(29 4488)"/><circle class="b" cx="4" cy="4" r="4" transform="translate(29 4228)"/><circle class="b" cx="4" cy="4" r="4" transform="translate(29 4644)"/><circle class="b" cx="4" cy="4" r="4" transform="translate(29 4436)"/><circle class="b" cx="4" cy="4" r="4" transform="translate(29 4332)"/><circle class="b" cx="4" cy="4" r="4" transform="translate(29 4748)"/><circle class="b" cx="4" cy="4" r="4" transform="translate(29 4540)"/><circle class="b" cx="4" cy="4" r="4" transform="translate(389 4176)"/><circle class="b" cx="4" cy="4" r="4" transform="translate(389 4592)"/><circle class="b" cx="4" cy="4" r="4" transform="translate(389 4384)"/><circle class="b" cx="4" cy="4" r="4" transform="translate(389 4800)"/><circle class="b" cx="4" cy="4" r="4" transform="translate(389 4280)"/><circle class="b" cx="4" cy="4" r="4" transform="translate(389 4696)"/><circle class="b" cx="4" cy="4" r="4" transform="translate(389 4488)"/><circle class="b" cx="4" cy="4" r="4" transform="translate(389 4228)"/><circle class="b" cx="4" cy="4" r="4" transform="translate(389 4644)"/><circle class="b" cx="4" cy="4" r="4" transform="translate(389 4436)"/><circle class="b" cx="4" cy="4" r="4" transform="translate(389 4332)"/><circle class="b" cx="4" cy="4" r="4" transform="translate(389 4748)"/><circle class="b" cx="4" cy="4" r="4" transform="translate(389 4540)"/><circle class="b" cx="4" cy="4" r="4" transform="translate(164 4176)"/><circle class="b" cx="4" cy="4" r="4" transform="translate(164 4592)"/><circle class="b" cx="4" cy="4" r="4" transform="translate(164 4384)"/><circle class="b" cx="4" cy="4" r="4" transform="translate(164 4800)"/><circle class="b" cx="4" cy="4" r="4" transform="translate(164 4280)"/><circle class="b" cx="4" cy="4" r="4" transform="translate(164 4696)"/><circle class="b" cx="4" cy="4" r="4" transform="translate(164 4488)"/><circle class="b" cx="4" cy="4" r="4" transform="translate(164 4228)"/><circle class="b" cx="4" cy="4" r="4" transform="translate(164 4644)"/><circle class="b" cx="4" cy="4" r="4" transform="translate(164 4436)"/><circle class="b" cx="4" cy="4" r="4" transform="translate(164 4332)"/><circle class="b" cx="4" cy="4" r="4" transform="translate(164 4748)"/><circle class="b" cx="4" cy="4" r="4" transform="translate(164 4540)"/><circle class="b" cx="4" cy="4" r="4" transform="translate(344 4176)"/><circle class="b" cx="4" cy="4" r="4" transform="translate(344 4592)"/><circle class="b" cx="4" cy="4" r="4" transform="translate(344 4384)"/><circle class="b" cx="4" cy="4" r="4" transform="translate(344 4800)"/><circle class="b" cx="4" cy="4" r="4" transform="translate(344 4280)"/><circle class="b" cx="4" cy="4" r="4" transform="translate(344 4696)"/><circle class="b" cx="4" cy="4" r="4" transform="translate(344 4488)"/><circle class="b" cx="4" cy="4" r="4" transform="translate(344 4228)"/><circle class="b" cx="4" cy="4" r="4" transform="translate(344 4644)"/><circle class="b" cx="4" cy="4" r="4" transform="translate(344 4436)"/><circle class="b" cx="4" cy="4" r="4" transform="translate(344 4332)"/><circle class="b" cx="4" cy="4" r="4" transform="translate(344 4748)"/><circle class="b" cx="4" cy="4" r="4" transform="translate(344 4540)"/><circle class="b" cx="4" cy="4" r="4" transform="translate(254 4176)"/><circle class="b" cx="4" cy="4" r="4" transform="translate(254 4592)"/><circle class="b" cx="4" cy="4" r="4" transform="translate(254 4384)"/><circle class="b" cx="4" cy="4" r="4" transform="translate(254 4800)"/><circle class="b" cx="4" cy="4" r="4" transform="translate(254 4280)"/><circle class="b" cx="4" cy="4" r="4" transform="translate(254 4696)"/><circle class="b" cx="4" cy="4" r="4" transform="translate(254 4488)"/><circle class="b" cx="4" cy="4" r="4" transform="translate(254 4228)"/><circle class="b" cx="4" cy="4" r="4" transform="translate(254 4644)"/><circle class="b" cx="4" cy="4" r="4" transform="translate(254 4436)"/><circle class="b" cx="4" cy="4" r="4" transform="translate(254 4332)"/><circle class="b" cx="4" cy="4" r="4" transform="translate(254 4748)"/><circle class="b" cx="4" cy="4" r="4" transform="translate(254 4540)"/><circle class="b" cx="4" cy="4" r="4" transform="translate(74 4176)"/><circle class="b" cx="4" cy="4" r="4" transform="translate(74 4592)"/><circle class="b" cx="4" cy="4" r="4" transform="translate(74 4384)"/><circle class="b" cx="4" cy="4" r="4" transform="translate(74 4800)"/><circle class="b" cx="4" cy="4" r="4" transform="translate(74 4280)"/><circle class="b" cx="4" cy="4" r="4" transform="translate(74 4696)"/><circle class="b" cx="4" cy="4" r="4" transform="translate(74 4488)"/><circle class="b" cx="4" cy="4" r="4" transform="translate(74 4228)"/><circle class="b" cx="4" cy="4" r="4" transform="translate(74 4644)"/><circle class="b" cx="4" cy="4" r="4" transform="translate(74 4436)"/><circle class="b" cx="4" cy="4" r="4" transform="translate(74 4332)"/><circle class="b" cx="4" cy="4" r="4" transform="translate(74 4748)"/><circle class="b" cx="4" cy="4" r="4" transform="translate(74 4540)"/><circle class="b" cx="4" cy="4" r="4" transform="translate(434 4176)"/><circle class="b" cx="4" cy="4" r="4" transform="translate(434 4592)"/><circle class="b" cx="4" cy="4" r="4" transform="translate(434 4384)"/><circle class="b" cx="4" cy="4" r="4" transform="translate(434 4800)"/><circle class="b" cx="4" cy="4" r="4" transform="translate(434 4280)"/><circle class="b" cx="4" cy="4" r="4" transform="translate(434 4696)"/><circle class="b" cx="4" cy="4" r="4" transform="translate(434 4488)"/><circle class="b" cx="4" cy="4" r="4" transform="translate(434 4228)"/><circle class="b" cx="4" cy="4" r="4" transform="translate(434 4644)"/><circle class="b" cx="4" cy="4" r="4" transform="translate(434 4436)"/><circle class="b" cx="4" cy="4" r="4" transform="translate(434 4332)"/><circle class="b" cx="4" cy="4" r="4" transform="translate(434 4748)"/><circle class="b" cx="4" cy="4" r="4" transform="translate(434 4540)"/><circle class="b" cx="4" cy="4" r="4" transform="translate(-241 4176)"/><circle class="b" cx="4" cy="4" r="4" transform="translate(-241 4592)"/><circle class="b" cx="4" cy="4" r="4" transform="translate(-241 4384)"/><circle class="b" cx="4" cy="4" r="4" transform="translate(-241 4800)"/><circle class="b" cx="4" cy="4" r="4" transform="translate(-241 4280)"/><circle class="b" cx="4" cy="4" r="4" transform="translate(-241 4696)"/><circle class="b" cx="4" cy="4" r="4" transform="translate(-241 4488)"/><circle class="b" cx="4" cy="4" r="4" transform="translate(-241 4228)"/><circle class="b" cx="4" cy="4" r="4" transform="translate(-241 4644)"/><circle class="b" cx="4" cy="4" r="4" transform="translate(-241 4436)"/><circle class="b" cx="4" cy="4" r="4" transform="translate(-241 4332)"/><circle class="b" cx="4" cy="4" r="4" transform="translate(-241 4748)"/><circle class="b" cx="4" cy="4" r="4" transform="translate(-241 4540)"/><circle class="b" cx="4" cy="4" r="4" transform="translate(-61 4176)"/><circle class="b" cx="4" cy="4" r="4" transform="translate(-61 4592)"/><circle class="b" cx="4" cy="4" r="4" transform="translate(-61 4384)"/><circle class="b" cx="4" cy="4" r="4" transform="translate(-61 4800)"/><circle class="b" cx="4" cy="4" r="4" transform="translate(-61 4280)"/><circle class="b" cx="4" cy="4" r="4" transform="translate(-61 4696)"/><circle class="b" cx="4" cy="4" r="4" transform="translate(-61 4488)"/><circle class="b" cx="4" cy="4" r="4" transform="translate(-61 4228)"/><circle class="b" cx="4" cy="4" r="4" transform="translate(-61 4644)"/><circle class="b" cx="4" cy="4" r="4" transform="translate(-61 4436)"/><circle class="b" cx="4" cy="4" r="4" transform="translate(-61 4332)"/><circle class="b" cx="4" cy="4" r="4" transform="translate(-61 4748)"/><circle class="b" cx="4" cy="4" r="4" transform="translate(-61 4540)"/><circle class="b" cx="4" cy="4" r="4" transform="translate(-151 4176)"/><circle class="b" cx="4" cy="4" r="4" transform="translate(-151 4592)"/><circle class="b" cx="4" cy="4" r="4" transform="translate(-151 4384)"/><circle class="b" cx="4" cy="4" r="4" transform="translate(-151 4800)"/><circle class="b" cx="4" cy="4" r="4" transform="translate(-151 4280)"/><circle class="b" cx="4" cy="4" r="4" transform="translate(-151 4696)"/><circle class="b" cx="4" cy="4" r="4" transform="translate(-151 4488)"/><circle class="b" cx="4" cy="4" r="4" transform="translate(-151 4228)"/><circle class="b" cx="4" cy="4" r="4" transform="translate(-151 4644)"/><circle class="b" cx="4" cy="4" r="4" transform="translate(-151 4436)"/><circle class="b" cx="4" cy="4" r="4" transform="translate(-151 4332)"/><circle class="b" cx="4" cy="4" r="4" transform="translate(-151 4748)"/><circle class="b" cx="4" cy="4" r="4" transform="translate(-151 4540)"/><circle class="b" cx="4" cy="4" r="4" transform="translate(-196 4176)"/><circle class="b" cx="4" cy="4" r="4" transform="translate(-196 4592)"/><circle class="b" cx="4" cy="4" r="4" transform="translate(-196 4384)"/><circle class="b" cx="4" cy="4" r="4" transform="translate(-196 4800)"/><circle class="b" cx="4" cy="4" r="4" transform="translate(-196 4280)"/><circle class="b" cx="4" cy="4" r="4" transform="translate(-196 4696)"/><circle class="b" cx="4" cy="4" r="4" transform="translate(-196 4488)"/><circle class="b" cx="4" cy="4" r="4" transform="translate(-196 4228)"/><circle class="b" cx="4" cy="4" r="4" transform="translate(-196 4644)"/><circle class="b" cx="4" cy="4" r="4" transform="translate(-196 4436)"/><circle class="b" cx="4" cy="4" r="4" transform="translate(-196 4332)"/><circle class="b" cx="4" cy="4" r="4" transform="translate(-196 4748)"/><circle class="b" cx="4" cy="4" r="4" transform="translate(-196 4540)"/><circle class="b" cx="4" cy="4" r="4" transform="translate(-16 4176)"/><circle class="b" cx="4" cy="4" r="4" transform="translate(-16 4592)"/><circle class="b" cx="4" cy="4" r="4" transform="translate(-16 4384)"/><circle class="b" cx="4" cy="4" r="4" transform="translate(-16 4800)"/><circle class="b" cx="4" cy="4" r="4" transform="translate(-16 4280)"/><circle class="b" cx="4" cy="4" r="4" transform="translate(-16 4696)"/><circle class="b" cx="4" cy="4" r="4" transform="translate(-16 4488)"/><circle class="b" cx="4" cy="4" r="4" transform="translate(-16 4228)"/><circle class="b" cx="4" cy="4" r="4" transform="translate(-16 4644)"/><circle class="b" cx="4" cy="4" r="4" transform="translate(-16 4436)"/><circle class="b" cx="4" cy="4" r="4" transform="translate(-16 4332)"/><circle class="b" cx="4" cy="4" r="4" transform="translate(-16 4748)"/><circle class="b" cx="4" cy="4" r="4" transform="translate(-16 4540)"/><circle class="b" cx="4" cy="4" r="4" transform="translate(-106 4176)"/><circle class="b" cx="4" cy="4" r="4" transform="translate(-106 4592)"/><circle class="b" cx="4" cy="4" r="4" transform="translate(-106 4384)"/><circle class="b" cx="4" cy="4" r="4" transform="translate(-106 4800)"/><circle class="b" cx="4" cy="4" r="4" transform="translate(-106 4280)"/><circle class="b" cx="4" cy="4" r="4" transform="translate(-106 4696)"/><circle class="b" cx="4" cy="4" r="4" transform="translate(-106 4488)"/><circle class="b" cx="4" cy="4" r="4" transform="translate(-106 4228)"/><circle class="b" cx="4" cy="4" r="4" transform="translate(-106 4644)"/><circle class="b" cx="4" cy="4" r="4" transform="translate(-106 4436)"/><circle class="b" cx="4" cy="4" r="4" transform="translate(-106 4332)"/><circle class="b" cx="4" cy="4" r="4" transform="translate(-106 4748)"/><circle class="b" cx="4" cy="4" r="4" transform="translate(-106 4540)"/></g></svg>